<svg width="100%" height="100%" viewBox="-2 -2 57 67" xmlns="http://www.w3.org/2000/svg">
<path d="M14.7813 17.0222L15.5169 17.1685L15.4164 17.6737L14.9088 17.7613L14.7813 17.0222ZM16.4723 10.8602L17.1884 11.0832L17.1884 11.0832L16.4723 10.8602ZM8.40913 19.4245L8.79608 20.0669L8.79608 20.0669L8.40913 19.4245ZM2.41067 34.3902L3.02337 33.9577L3.02337 33.9577L2.41067 34.3902ZM11.1638 37.984L11.1351 37.2346L13.4037 37.1476L11.6334 38.5689L11.1638 37.984ZM8.78851 56.1181L9.44333 55.7525L9.84677 56.475L9.08825 56.8056L8.78851 56.1181ZM15.8763 60.9806L15.4481 60.3649L15.9512 60.015L16.3944 60.4383L15.8763 60.9806ZM26.5614 62.0841L26.5584 61.3341H26.5614V62.0841ZM26.5638 62.0841L26.5669 62.8341H26.5638V62.0841ZM31.125 62.0841L31.125 62.8341L31.1219 62.8341L31.125 62.0841ZM31.1273 62.0841L31.1273 61.3341L31.1304 61.3341L31.1273 62.0841ZM40.7312 58.4612L40.356 59.1107L39.261 58.478L40.3413 57.8206L40.7312 58.4612ZM44.2614 55.6338L43.7191 55.1157L44.4898 54.3088L44.9459 55.3272L44.2614 55.6338ZM46.3791 57.6033L46.1895 58.329L46.1895 58.329L46.3791 57.6033ZM52.6492 52.0405L53.3664 52.2601L53.3664 52.2601L52.6492 52.0405ZM50.4616 44.2687L50.6511 43.543L50.6511 43.543L50.4616 44.2687ZM48.3733 44.4694L48.6639 45.1608L47.7098 45.5618L47.6258 44.5303L48.3733 44.4694ZM24.7197 30.7852L24.9353 31.5036L22.8212 32.1379L24.1111 30.3469L24.7197 30.7852ZM26.6058 22.2992L25.8912 22.5268L25.7422 22.0588L26.1116 21.7351L26.6058 22.2992ZM30.9871 14.641L30.271 14.4179L30.271 14.4179L30.9871 14.641ZM29.9308 3.80093L30.1234 3.07608L30.1234 3.07608L29.9308 3.80093ZM24.4726 8.43291L25.1335 8.78738L24.0477 10.812L23.7298 8.53669L24.4726 8.43291ZM19.8155 1.03713L19.6229 1.76198L19.6229 1.76198L19.8155 1.03713ZM17.3133 6.71026L18.0539 6.82894L18.0519 6.84146L18.0494 6.85389L17.3133 6.71026ZM17.3133 6.71032H16.5633V6.63783L16.5772 6.56669L17.3133 6.71032ZM17.3133 6.71035H18.0633V6.77007L18.0538 6.82904L17.3133 6.71035ZM10.9534 23.8002L11.4167 23.2104L11.4167 23.2104L10.9534 23.8002ZM10.8259 25.09L10.2742 24.5819L10.2742 24.5819L10.8259 25.09ZM14.0457 16.876C14.4114 15.0361 15.0655 12.8551 15.7563 10.6371L17.1884 11.0832C16.4951 13.309 15.8649 15.4176 15.5169 17.1685L14.0457 16.876ZM8.02219 18.782C10.1562 17.4968 12.4328 16.6665 14.6537 16.2832L14.9088 17.7613C12.8736 18.1126 10.7726 18.8765 8.79608 20.0669L8.02219 18.782ZM1.79797 34.8228C0.0658419 32.3692 -0.0150564 29.3149 1.14196 26.4282C2.29698 23.5465 4.6945 20.7862 8.02219 18.782L8.79608 20.0669C5.70496 21.9286 3.55028 24.4514 2.53428 26.9863C1.52028 29.5161 1.64956 32.0117 3.02337 33.9577L1.79797 34.8228ZM11.1926 38.7335C7.34519 38.881 3.76889 37.6146 1.79797 34.8228L3.02337 33.9577C4.60587 36.1993 7.6035 37.37 11.1351 37.2346L11.1926 38.7335ZM6.18961 48.4987C6.18961 43.7956 7.95445 39.5988 10.6943 37.3992L11.6334 38.5689C9.34227 40.4083 7.68961 44.1141 7.68961 48.4987H6.18961ZM8.13369 56.4838C6.91062 54.2935 6.18961 51.5102 6.18961 48.4987H7.68961C7.68961 51.2795 8.35691 53.8069 9.44333 55.7525L8.13369 56.4838ZM5.7808 58.8028C5.7808 57.2563 7.00544 56.0773 8.48878 55.4306L9.08825 56.8056C7.83946 57.3501 7.2808 58.1321 7.2808 58.8028H5.7808ZM11.8735 62.8407C10.2822 62.8407 8.80568 62.4453 7.70258 61.7665C6.6116 61.0951 5.7808 60.0683 5.7808 58.8028H7.2808C7.2808 59.3532 7.64602 59.9704 8.48873 60.489C9.31932 61.0001 10.5141 61.3407 11.8735 61.3407V62.8407ZM16.3046 61.5963C15.1772 62.3805 13.5897 62.8407 11.8735 62.8407V61.3407C13.3442 61.3407 14.6177 60.9425 15.4481 60.3649L16.3046 61.5963ZM26.5645 62.8341C23.9367 62.8449 21.5315 62.8552 19.6341 62.7169C18.6848 62.6477 17.8338 62.5395 17.1294 62.3663C16.4437 62.1978 15.8008 61.9457 15.3583 61.523L16.3944 60.4383C16.5498 60.5868 16.882 60.7609 17.4874 60.9097C18.0741 61.0539 18.8303 61.1543 19.7432 61.2209C21.5701 61.3541 23.9095 61.345 26.5584 61.3341L26.5645 62.8341ZM26.5626 62.8341H26.5614V61.3341H26.5626V62.8341ZM26.5638 62.8341H26.5626V61.3341H26.5638V62.8341ZM28.8444 62.828C28.0686 62.828 27.3081 62.8311 26.5669 62.8341L26.5607 61.3341C27.3015 61.3311 28.065 61.328 28.8444 61.328V62.828ZM31.1219 62.8341C30.3806 62.8311 29.6202 62.828 28.8444 62.828V61.328C29.6237 61.328 30.3872 61.3311 31.128 61.3341L31.1219 62.8341ZM31.1261 62.8341H31.125V61.3341H31.1261V62.8341ZM31.1273 62.8341H31.1261V61.3341H31.1273V62.8341ZM42.9041 60.2109C42.9041 61.089 42.3242 61.6547 41.6427 61.9896C40.9801 62.3152 40.0847 62.5031 39.0768 62.6214C37.047 62.8597 34.2362 62.8469 31.1242 62.8341L31.1304 61.3341C34.2815 61.3471 36.984 61.3568 38.9019 61.1316C39.8678 61.0182 40.5549 60.8529 40.9812 60.6434C41.3886 60.4432 41.4041 60.2919 41.4041 60.2109H42.9041ZM41.1064 57.8118C42.0585 58.3619 42.9041 59.1497 42.9041 60.2109H41.4041C41.4041 60.0133 41.2243 59.6123 40.356 59.1107L41.1064 57.8118ZM44.8038 56.1518C43.731 57.2749 42.4917 58.2677 41.1211 59.1019L40.3413 57.8206C41.6036 57.0523 42.7397 56.1411 43.7191 55.1157L44.8038 56.1518ZM46.1895 58.329C44.9703 58.0106 44.095 57.0972 43.5769 55.9403L44.9459 55.3272C45.3305 56.1861 45.9 56.7031 46.5686 56.8777L46.1895 58.329ZM53.3664 52.2601C52.7679 54.2149 51.7161 55.8826 50.465 56.9926C49.2255 58.0922 47.6896 58.7208 46.1895 58.329L46.5686 56.8777C47.404 57.0959 48.4396 56.7842 49.4695 55.8705C50.4877 54.9672 51.4032 53.5485 51.9321 51.821L53.3664 52.2601ZM50.6511 43.543C52.1651 43.9384 53.1368 45.239 53.576 46.7993C54.0173 48.3673 53.9645 50.3063 53.3664 52.2601L51.9321 51.821C52.4613 50.0925 52.4825 48.4506 52.1321 47.2057C51.7795 45.9532 51.0936 45.2089 50.2721 44.9943L50.6511 43.543ZM48.0827 43.778C48.9056 43.4321 49.7888 43.3178 50.6511 43.543L50.2721 44.9943C49.7862 44.8674 49.2428 44.9175 48.6639 45.1608L48.0827 43.778ZM30.5263 29.1924C40.282 29.1924 48.4212 35.8222 49.1208 44.4085L47.6258 44.5303C47.0022 36.8773 39.6663 30.6924 30.5263 30.6924V29.1924ZM24.5042 30.0668C26.3948 29.4996 28.4208 29.1924 30.5263 29.1924V30.6924C28.5669 30.6924 26.6861 30.9782 24.9353 31.5036L24.5042 30.0668ZM27.3205 22.0717C28.2511 24.9946 27.4132 28.3287 25.3283 31.2235L24.1111 30.3469C26.0084 27.7126 26.6368 24.8684 25.8912 22.5268L27.3205 22.0717ZM31.7032 14.864C30.619 18.345 28.895 21.2906 27.1001 22.8633L26.1116 21.7351C27.6243 20.4097 29.2336 17.7487 30.271 14.4179L31.7032 14.864ZM30.1234 3.07608C30.9458 3.29459 31.5435 3.88835 31.9458 4.63492C32.3449 5.37548 32.5809 6.31326 32.6823 7.35372C32.8855 9.43863 32.5637 12.101 31.7032 14.864L30.271 14.4179C31.088 11.7949 31.3685 9.3376 31.1894 7.49919C31.0996 6.57799 30.8984 5.85319 30.6253 5.3465C30.3555 4.84581 30.0463 4.60764 29.7382 4.52578L30.1234 3.07608ZM23.8116 8.07844C24.6823 6.45498 25.6889 5.10456 26.7289 4.20637C27.7445 3.32922 28.9424 2.76229 30.1234 3.07608L29.7382 4.52578C29.2788 4.4037 28.591 4.5801 27.7093 5.34158C26.852 6.08202 25.9497 7.26552 25.1335 8.78738L23.8116 8.07844ZM20.0081 0.312285C20.5787 0.463898 21.1463 0.825065 21.6661 1.2846C22.1945 1.75183 22.7157 2.35801 23.1902 3.0615C24.1378 4.46669 24.9335 6.31189 25.2154 8.32912L23.7298 8.53669C23.4827 6.76825 22.7801 5.13616 21.9466 3.90019C21.5304 3.2831 21.0903 2.77772 20.6725 2.40839C20.2461 2.03137 19.8825 1.83097 19.6229 1.76198L20.0081 0.312285ZM16.5728 6.59157C16.8163 5.07181 17.0693 3.47733 17.4679 2.31904C17.6653 1.74535 17.9283 1.18425 18.3153 0.791503C18.7471 0.353303 19.3333 0.132999 20.0081 0.312285L19.6229 1.76198C19.5337 1.73828 19.487 1.73951 19.3838 1.84431C19.2357 1.99456 19.0615 2.29793 18.8863 2.80715C18.5395 3.81468 18.3053 5.25974 18.0539 6.82894L16.5728 6.59157ZM16.5772 6.56669L16.5772 6.56663L18.0494 6.85389L18.0494 6.85395L16.5772 6.56669ZM16.5633 6.71035V6.71032H18.0633V6.71035H16.5633ZM15.7563 10.6372C16.0992 9.53613 16.3325 8.09095 16.5727 6.59167L18.0538 6.82904C17.8191 8.29353 17.5701 9.8576 17.1884 11.0832L15.7563 10.6372ZM10.1472 24.6314C10.0347 24.7535 10.0016 24.8617 9.9969 24.9088C9.99479 24.9303 9.99944 24.9262 9.99142 24.9043C9.98214 24.8788 9.96195 24.8473 9.93137 24.8233L9.00468 26.0028C8.58807 25.6755 8.46214 25.1866 8.50418 24.7613C8.54565 24.3416 8.7461 23.9385 9.04381 23.6152L10.1472 24.6314ZM10.49 24.3899C10.5524 24.4389 10.5717 24.4011 10.4744 24.4243C10.3845 24.4456 10.2587 24.5103 10.1472 24.6314L9.04381 23.6152C9.34246 23.2909 9.72569 23.0605 10.1272 22.965C10.5215 22.8712 11.0146 22.8945 11.4167 23.2104L10.49 24.3899ZM10.2742 24.5819C10.3867 24.4598 10.4198 24.3515 10.4245 24.3044C10.4266 24.283 10.422 24.287 10.43 24.309C10.4393 24.3344 10.4595 24.3659 10.49 24.3899L11.4167 23.2104C11.8333 23.5378 11.9593 24.0266 11.9172 24.4519C11.8757 24.8716 11.6753 25.2748 11.3776 25.598L10.2742 24.5819ZM9.93137 24.8233C9.86902 24.7743 9.84975 24.8121 9.94695 24.789C10.0369 24.7676 10.1627 24.703 10.2742 24.5819L11.3776 25.598C11.0789 25.9223 10.6957 26.1527 10.2942 26.2482C9.89992 26.3421 9.40679 26.3187 9.00468 26.0028L9.93137 24.8233Z"/>
</svg>
