<!-- credit: https://www.svgrepo.com/svg/18735/class-open-door (modified)-->
<svg width="100%" height="100%" viewBox="-1 0 44 58" fill="none" xmlns="http://www.w3.org/2000/svg">

<path fill-rule="evenodd" clip-rule="evenodd" fill="none" d="M16.1157 38.7785H19.2035L18.991 41.0113V50.3412H22.0171V41.0113H24.0168V50.3412H27.0428V41.0113L26.8338 38.7785H28.9267L29.5686 36.6508L28.0967 30.7354L25.0689 30.1591C25.0689 30.1591 24.4914 32.0366 22.8978 32.1381C21.3094 32.236 20.7097 30.1591 20.7097 30.1591L18.1565 30.8006L16.1071 36.6526L16.1157 38.7785Z"/>
<path fill-rule="evenodd" clip-rule="evenodd" fill="none" d="M11.7394 2.10412V4.35685L0 0V57.1139L15.4971 52.7208V50.9012V36.6526V5.57655L14.3456 5.20321V4.86431H39.6578V13.5889C39.3357 13.5146 39.0084 13.4439 38.664 13.4439C35.9155 13.4439 33.6827 15.8072 33.6827 18.7196C33.6827 21.6302 35.9172 23.9917 38.664 23.9917C39.0084 23.9917 39.3357 23.921 39.6578 23.8485V25.9708L38.7548 27.1143L36.8562 24.7855L32.4576 25.5938V35.0524H34.0272L34.1248 37.0224H34.4401V38.2203V39.1065V48.4908H34.0991L32.0977 48.9511V50.9012H33.801L35.787 50.5605L35.8058 50.9012H38.0111V48.7319V48.4908V39.1065H39.2637V48.4908V48.7319V50.9012H39.6595V52.6954H42.2658V2.10412H11.7394ZM2.61141 28.8922C2.61141 29.9851 3.32252 30.8695 4.19813 30.8695C5.07546 30.8695 5.78657 29.9851 5.78657 28.8922C5.78657 27.7994 5.07546 26.915 4.19813 26.915C3.32252 26.915 2.61141 27.7994 2.61141 28.8922Z"/>

<path fill-rule="evenodd" clip-rule="evenodd" fill="none" d="M16.1157 38.7785H19.2035L18.991 41.0113V50.3412H22.0171V41.0113H24.0168V50.3412H27.0428V41.0113L26.8338 38.7785H28.9267L29.5686 36.6508L28.0967 30.7354L25.0689 30.1591C25.0689 30.1591 24.4914 32.0366 22.8978 32.1381C21.3094 32.236 20.7097 30.1591 20.7097 30.1591L18.1565 30.8006L16.1071 36.6526L16.1157 38.7785Z" 
/>
<path fill-rule="evenodd" fill="none" d="M11.7394 2.10412V4.35685L0 0V57.1139L15.4971 52.7208V50.9012V36.6526V5.57655L14.3456 5.20321V4.86431H39.6578V13.5889C39.3357 13.5146 39.0084 13.4439 38.664 13.4439C35.9155 13.4439 33.6827 15.8072 33.6827 18.7196C33.6827 21.6302 35.9172 23.9917 38.664 23.9917C39.0084 23.9917 39.3357 23.921 39.6578 23.8485V25.9708L38.7548 27.1143L36.8562 24.7855L32.4576 25.5938V35.0524H34.0272L34.1248 37.0224H34.4401V38.2203V39.1065V48.4908H34.0991L32.0977 48.9511V50.9012H33.801L35.787 50.5605L35.8058 50.9012H38.0111V48.7319V48.4908V39.1065H39.2637V48.4908V48.7319V50.9012H39.6595V52.6954H42.2658V2.10412H11.7394ZM2.61141 28.8922C2.61141 29.9851 3.32252 30.8695 4.19813 30.8695C5.07546 30.8695 5.78657 29.9851 5.78657 28.8922C5.78657 27.7994 5.07546 26.915 4.19813 26.915C3.32252 26.915 2.61141 27.7994 2.61141 28.8922Z" 
/>
<path d="M26.3828 24.1629C26.3828 26.1987 24.7925 27.8063 22.8828 27.8063C20.9731 27.8063 19.3828 26.1987 19.3828 24.1629C19.3828 22.1271 20.9731 20.5195 22.8828 20.5195C24.7925 20.5195 26.3828 22.1271 26.3828 24.1629Z" 
fill="none"/>
</svg>
