<svg width="100%" height="100%" viewBox="-2 -2 57 67" fill="none" xmlns="http://www.w3.org/2000/svg">
<path d="M39.3359 17.0222L38.6003 17.1685L38.7008 17.6737L39.2084 17.7613L39.3359 17.0222ZM37.6449 10.8602L36.9288 11.0832L36.9288 11.0832L37.6449 10.8602ZM45.7081 19.4245L45.3211 20.0669L45.3211 20.0669L45.7081 19.4245ZM51.7065 34.3902L51.0938 33.9577L51.0938 33.9577L51.7065 34.3902ZM42.9534 37.984L42.9821 37.2346L40.7135 37.1476L42.4838 38.5689L42.9534 37.984ZM45.3287 56.1181L44.6739 55.7525L44.2704 56.475L45.0289 56.8056L45.3287 56.1181ZM38.2409 60.9806L38.6691 60.3649L38.166 60.015L37.7228 60.4383L38.2409 60.9806ZM27.5557 62.0841L27.5588 61.3341H27.5557V62.0841ZM27.5534 62.0841L27.5503 62.8341H27.5534V62.0841ZM22.9922 62.0841L22.9922 62.8341L22.9953 62.8341L22.9922 62.0841ZM22.9899 62.0841L22.9899 61.3341L22.9868 61.3341L22.9899 62.0841ZM13.386 58.4612L13.7611 59.1107L14.8562 58.478L13.7759 57.8206L13.386 58.4612ZM9.85576 55.6338L10.3981 55.1157L9.62734 54.3088L9.17127 55.3272L9.85576 55.6338ZM7.73813 57.6033L7.92766 58.329L7.92766 58.329L7.73813 57.6033ZM1.46796 52.0405L0.750817 52.2601L0.750817 52.2601L1.46796 52.0405ZM3.65559 44.2687L3.46606 43.543L3.46606 43.543L3.65559 44.2687ZM5.7439 44.4694L5.45332 45.1608L6.40738 45.5618L6.49143 44.5303L5.7439 44.4694ZM29.3975 30.7852L29.1819 31.5036L31.296 32.1379L30.006 30.3469L29.3975 30.7852ZM27.5113 22.2992L28.226 22.5268L28.375 22.0588L28.0056 21.7351L27.5113 22.2992ZM23.1301 14.641L23.8462 14.4179L23.8462 14.4179L23.1301 14.641ZM24.1864 3.80093L23.9938 3.07608L23.9938 3.07608L24.1864 3.80093ZM29.6446 8.43291L28.9836 8.78738L30.0695 10.812L30.3874 8.53669L29.6446 8.43291ZM34.3017 1.03713L34.4943 1.76198L34.4943 1.76198L34.3017 1.03713ZM36.8039 6.71026L36.0633 6.82894L36.0653 6.84146L36.0678 6.85389L36.8039 6.71026ZM36.8039 6.71032H37.5539V6.63783L37.54 6.56669L36.8039 6.71032ZM36.8039 6.71035H36.0539V6.77007L36.0633 6.82904L36.8039 6.71035ZM43.1638 23.8002L42.7005 23.2104L42.7005 23.2104L43.1638 23.8002ZM43.2913 25.09L43.843 24.5819L43.843 24.5819L43.2913 25.09ZM40.0715 16.876C39.7058 15.0361 39.0517 12.8551 38.3609 10.6371L36.9288 11.0832C37.622 13.309 38.2523 15.4176 38.6003 17.1685L40.0715 16.876ZM46.095 18.782C43.961 17.4968 41.6844 16.6665 39.4635 16.2832L39.2084 17.7613C41.2436 18.1126 43.3446 18.8765 45.3211 20.0669L46.095 18.782ZM52.3192 34.8228C54.0513 32.3692 54.1322 29.3149 52.9752 26.4282C51.8202 23.5465 49.4227 20.7862 46.095 18.782L45.3211 20.0669C48.4122 21.9286 50.5669 24.4514 51.5829 26.9863C52.5969 29.5161 52.4676 32.0117 51.0938 33.9577L52.3192 34.8228ZM42.9246 38.7335C46.772 38.881 50.3483 37.6146 52.3192 34.8228L51.0938 33.9577C49.5113 36.1993 46.5137 37.37 42.9821 37.2346L42.9246 38.7335ZM47.9276 48.4987C47.9276 43.7956 46.1627 39.5988 43.4229 37.3992L42.4838 38.5689C44.7749 40.4083 46.4276 44.1141 46.4276 48.4987H47.9276ZM45.9835 56.4838C47.2066 54.2935 47.9276 51.5102 47.9276 48.4987H46.4276C46.4276 51.2795 45.7603 53.8069 44.6739 55.7525L45.9835 56.4838ZM48.3364 58.8028C48.3364 57.2563 47.1118 56.0773 45.6284 55.4306L45.0289 56.8056C46.2777 57.3501 46.8364 58.1321 46.8364 58.8028H48.3364ZM42.2436 62.8407C43.835 62.8407 45.3115 62.4453 46.4146 61.7665C47.5056 61.0951 48.3364 60.0683 48.3364 58.8028H46.8364C46.8364 59.3532 46.4712 59.9704 45.6285 60.489C44.7979 61.0001 43.6031 61.3407 42.2436 61.3407V62.8407ZM37.8126 61.5963C38.94 62.3805 40.5275 62.8407 42.2436 62.8407V61.3407C40.7729 61.3407 39.4995 60.9425 38.6691 60.3649L37.8126 61.5963ZM27.5527 62.8341C30.1804 62.8449 32.5857 62.8552 34.4831 62.7169C35.4324 62.6477 36.2834 62.5395 36.9878 62.3663C37.6735 62.1978 38.3164 61.9457 38.7589 61.523L37.7228 60.4383C37.5674 60.5868 37.2352 60.7609 36.6297 60.9097C36.0431 61.0539 35.2869 61.1543 34.374 61.2209C32.5471 61.3541 30.2077 61.345 27.5588 61.3341L27.5527 62.8341ZM27.5546 62.8341H27.5557V61.3341H27.5546V62.8341ZM27.5534 62.8341H27.5546V61.3341H27.5534V62.8341ZM25.2728 62.828C26.0486 62.828 26.8091 62.8311 27.5503 62.8341L27.5565 61.3341C26.8157 61.3311 26.0522 61.328 25.2728 61.328V62.828ZM22.9953 62.8341C23.7365 62.8311 24.497 62.828 25.2728 62.828V61.328C24.4935 61.328 23.73 61.3311 22.9892 61.3341L22.9953 62.8341ZM22.9911 62.8341H22.9922V61.3341H22.9911V62.8341ZM22.9899 62.8341H22.9911V61.3341H22.9899V62.8341ZM11.2131 60.2109C11.2131 61.089 11.793 61.6547 12.4745 61.9896C13.1371 62.3152 14.0325 62.5031 15.0404 62.6214C17.0702 62.8597 19.881 62.8469 22.993 62.8341L22.9868 61.3341C19.8357 61.3471 17.1332 61.3568 15.2153 61.1316C14.2493 61.0182 13.5623 60.8529 13.136 60.6434C12.7286 60.4432 12.7131 60.2919 12.7131 60.2109H11.2131ZM13.0108 57.8118C12.0587 58.3619 11.2131 59.1497 11.2131 60.2109H12.7131C12.7131 60.0133 12.8929 59.6123 13.7611 59.1107L13.0108 57.8118ZM9.31343 56.1518C10.3862 57.2749 11.6255 58.2677 12.996 59.1019L13.7759 57.8206C12.5135 57.0523 11.3775 56.1411 10.3981 55.1157L9.31343 56.1518ZM7.92766 58.329C9.14685 58.0106 10.0222 57.0972 10.5403 55.9403L9.17127 55.3272C8.78665 56.1861 8.21718 56.7031 7.5486 56.8777L7.92766 58.329ZM0.750817 52.2601C1.34929 54.2149 2.40106 55.8826 3.65223 56.9926C4.89168 58.0922 6.42755 58.7208 7.92766 58.329L7.5486 56.8777C6.71316 57.0959 5.67762 56.7842 4.64771 55.8705C3.62952 54.9672 2.71399 53.5485 2.1851 51.821L0.750817 52.2601ZM3.46606 43.543C1.95207 43.9384 0.980433 45.239 0.541237 46.7993C0.0998684 48.3673 0.152656 50.3063 0.750817 52.2601L2.1851 51.821C1.6559 50.0925 1.63473 48.4506 1.98513 47.2057C2.3377 45.9532 3.02356 45.2089 3.84512 44.9943L3.46606 43.543ZM6.03449 43.778C5.21156 43.4321 4.32835 43.3178 3.46606 43.543L3.84512 44.9943C4.33095 44.8674 4.87443 44.9175 5.45332 45.1608L6.03449 43.778ZM23.5909 29.1924C13.8352 29.1924 5.69597 35.8222 4.99638 44.4085L6.49143 44.5303C7.11497 36.8773 14.4509 30.6924 23.5909 30.6924V29.1924ZM29.613 30.0668C27.7223 29.4996 25.6964 29.1924 23.5909 29.1924V30.6924C25.5503 30.6924 27.431 30.9782 29.1819 31.5036L29.613 30.0668ZM26.7967 22.0717C25.866 24.9946 26.704 28.3287 28.7889 31.2235L30.006 30.3469C28.1088 27.7126 27.4804 24.8684 28.226 22.5268L26.7967 22.0717ZM22.414 14.864C23.4982 18.345 25.2222 21.2906 27.0171 22.8633L28.0056 21.7351C26.4929 20.4097 24.8836 17.7487 23.8462 14.4179L22.414 14.864ZM23.9938 3.07608C23.1714 3.29459 22.5737 3.88835 22.1714 4.63492C21.7723 5.37548 21.5362 6.31326 21.4349 7.35372C21.2317 9.43863 21.5535 12.101 22.414 14.864L23.8462 14.4179C23.0292 11.7949 22.7487 9.3376 22.9278 7.49919C23.0176 6.57799 23.2188 5.85319 23.4919 5.3465C23.7617 4.84581 24.0709 4.60764 24.379 4.52578L23.9938 3.07608ZM30.3055 8.07844C29.4349 6.45498 28.4283 5.10456 27.3883 4.20637C26.3727 3.32922 25.1748 2.76229 23.9938 3.07608L24.379 4.52578C24.8384 4.4037 25.5262 4.5801 26.4078 5.34158C27.2652 6.08202 28.1675 7.26552 28.9836 8.78738L30.3055 8.07844ZM34.1091 0.312285C33.5385 0.463898 32.9709 0.825065 32.4511 1.2846C31.9227 1.75183 31.4014 2.35801 30.927 3.0615C29.9794 4.46669 29.1837 6.31189 28.9018 8.32912L30.3874 8.53669C30.6345 6.76825 31.3371 5.13616 32.1706 3.90019C32.5868 3.2831 33.0269 2.77772 33.4447 2.40839C33.8711 2.03137 34.2347 1.83097 34.4943 1.76198L34.1091 0.312285ZM37.5444 6.59157C37.3009 5.07181 37.0479 3.47733 36.6493 2.31904C36.4519 1.74535 36.1889 1.18425 35.8019 0.791503C35.3701 0.353303 34.7839 0.132999 34.1091 0.312285L34.4943 1.76198C34.5835 1.73828 34.6301 1.73951 34.7334 1.84431C34.8815 1.99456 35.0557 2.29793 35.2309 2.80715C35.5777 3.81468 35.8118 5.25974 36.0633 6.82894L37.5444 6.59157ZM37.54 6.56669L37.54 6.56663L36.0678 6.85389L36.0678 6.85395L37.54 6.56669ZM37.5539 6.71035V6.71032H36.0539V6.71035H37.5539ZM38.3609 10.6372C38.018 9.53613 37.7847 8.09095 37.5444 6.59167L36.0633 6.82904C36.2981 8.29353 36.5471 9.8576 36.9288 11.0832L38.3609 10.6372ZM43.97 24.6314C44.0825 24.7535 44.1156 24.8617 44.1203 24.9088C44.1224 24.9303 44.1177 24.9262 44.1258 24.9043C44.1351 24.8788 44.1552 24.8473 44.1858 24.8233L45.1125 26.0028C45.5291 25.6755 45.6551 25.1866 45.613 24.7613C45.5715 24.3416 45.3711 23.9385 45.0734 23.6152L43.97 24.6314ZM43.6272 24.3899C43.5648 24.4389 43.5455 24.4011 43.6427 24.4243C43.7327 24.4456 43.8585 24.5103 43.97 24.6314L45.0734 23.6152C44.7747 23.2909 44.3915 23.0605 43.99 22.965C43.5957 22.8712 43.1026 22.8945 42.7005 23.2104L43.6272 24.3899ZM43.843 24.5819C43.7305 24.4598 43.6974 24.3515 43.6927 24.3044C43.6906 24.283 43.6952 24.287 43.6872 24.309C43.6779 24.3344 43.6577 24.3659 43.6272 24.3899L42.7005 23.2104C42.2839 23.5378 42.1579 24.0266 42.2 24.4519C42.2414 24.8716 42.4419 25.2748 42.7396 25.598L43.843 24.5819ZM44.1858 24.8233C44.2482 24.7743 44.2674 24.8121 44.1702 24.789C44.0803 24.7676 43.9545 24.703 43.843 24.5819L42.7396 25.598C43.0382 25.9223 43.4215 26.1527 43.823 26.2482C44.2173 26.3421 44.7104 26.3187 45.1125 26.0028L44.1858 24.8233Z"/>
</svg>
