<svg width="64" height="64" viewBox="0 0 64 64" fill="none" xmlns="http://www.w3.org/2000/svg">
<mask id="path-1-inside-1_1518_44" fill="white">
<path fill-rule="evenodd" clip-rule="evenodd" d="M42.4584 10.3299C43.128 12.6578 43.7494 14.9049 44.0948 16.7859C46.1539 17.1707 48.2718 18.0057 50.2605 19.3025C56.4716 23.3525 59.0702 30.3721 56.0648 34.9811C54.3459 37.6173 51.1661 38.8939 47.5968 38.7462C50.0304 40.8621 51.6835 45.0013 51.6835 49.7611C51.6835 52.7951 51.0119 55.577 49.8945 57.7434C51.2158 58.3673 52.0782 59.3943 52.0782 60.5555C52.0782 62.4579 49.7636 64 46.9084 64C45.3672 64 43.9836 63.5507 43.0364 62.838C41.8791 64.0347 37.803 64.0166 32.6973 63.994H32.6964H32.6955C31.9783 63.9908 31.2408 63.9875 30.4882 63.9875C29.7357 63.9875 28.9982 63.9908 28.281 63.994H28.2801H28.2792C22.2189 64.0208 17.6093 64.0413 17.6093 62.0315C17.6093 61.3722 18.1053 60.7496 18.9857 60.1987C17.7115 59.3592 16.5621 58.3616 15.569 57.2359C15.1322 58.2915 14.4332 59.0407 13.52 59.2989C11.2601 59.938 8.54368 57.3288 7.45281 53.4711C6.36194 49.6134 7.30968 45.9681 9.56964 45.329C10.2219 45.1446 10.9123 45.2307 11.5906 45.5394C12.231 37.0333 19.718 30.321 28.8598 30.321C30.8261 30.321 32.7159 30.6316 34.4774 31.2037C32.551 28.3075 31.8418 25.0712 32.653 22.3137C31.0529 20.7954 29.4406 17.8589 28.4143 14.2913C26.791 8.64872 27.2486 3.56429 29.4363 2.93493C31.0234 2.47837 33.085 4.49183 34.7172 7.78611C35.2292 3.82048 37.6168 0.501092 39.2234 0.0389033C40.7019 -0.386409 41.1656 2.74616 41.6446 5.98226C41.8744 7.53477 42.1078 9.11111 42.4584 10.3299ZM48.1834 26.9981C48.9415 26.9981 49.5561 26.281 49.5561 25.3965C49.5561 24.512 48.9415 23.7949 48.1834 23.7949C47.4252 23.7949 46.8106 24.512 46.8106 25.3965C46.8106 26.281 47.4252 26.9981 48.1834 26.9981Z"/>
</mask>
<path fill-rule="evenodd" clip-rule="evenodd" d="M42.4584 10.3299C43.128 12.6578 43.7494 14.9049 44.0948 16.7859C46.1539 17.1707 48.2718 18.0057 50.2605 19.3025C56.4716 23.3525 59.0702 30.3721 56.0648 34.9811C54.3459 37.6173 51.1661 38.8939 47.5968 38.7462C50.0304 40.8621 51.6835 45.0013 51.6835 49.7611C51.6835 52.7951 51.0119 55.577 49.8945 57.7434C51.2158 58.3673 52.0782 59.3943 52.0782 60.5555C52.0782 62.4579 49.7636 64 46.9084 64C45.3672 64 43.9836 63.5507 43.0364 62.838C41.8791 64.0347 37.803 64.0166 32.6973 63.994H32.6964H32.6955C31.9783 63.9908 31.2408 63.9875 30.4882 63.9875C29.7357 63.9875 28.9982 63.9908 28.281 63.994H28.2801H28.2792C22.2189 64.0208 17.6093 64.0413 17.6093 62.0315C17.6093 61.3722 18.1053 60.7496 18.9857 60.1987C17.7115 59.3592 16.5621 58.3616 15.569 57.2359C15.1322 58.2915 14.4332 59.0407 13.52 59.2989C11.2601 59.938 8.54368 57.3288 7.45281 53.4711C6.36194 49.6134 7.30968 45.9681 9.56964 45.329C10.2219 45.1446 10.9123 45.2307 11.5906 45.5394C12.231 37.0333 19.718 30.321 28.8598 30.321C30.8261 30.321 32.7159 30.6316 34.4774 31.2037C32.551 28.3075 31.8418 25.0712 32.653 22.3137C31.0529 20.7954 29.4406 17.8589 28.4143 14.2913C26.791 8.64872 27.2486 3.56429 29.4363 2.93493C31.0234 2.47837 33.085 4.49183 34.7172 7.78611C35.2292 3.82048 37.6168 0.501092 39.2234 0.0389033C40.7019 -0.386409 41.1656 2.74616 41.6446 5.98226C41.8744 7.53477 42.1078 9.11111 42.4584 10.3299ZM48.1834 26.9981C48.9415 26.9981 49.5561 26.281 49.5561 25.3965C49.5561 24.512 48.9415 23.7949 48.1834 23.7949C47.4252 23.7949 46.8106 24.512 46.8106 25.3965C46.8106 26.281 47.4252 26.9981 48.1834 26.9981Z" fill="#11644D"/>
<path d="M44.0948 16.7859L41.9533 17.179L42.2236 18.6511L43.6948 18.926L44.0948 16.7859ZM42.4584 10.3299L40.366 10.9318L42.4584 10.3299ZM50.2605 19.3025L51.4497 17.4787L51.4497 17.4787L50.2605 19.3025ZM56.0648 34.9811L54.241 33.7919L54.241 33.7919L56.0648 34.9811ZM47.5968 38.7462L47.6868 36.5708L41.481 36.314L46.1683 40.3893L47.5968 38.7462ZM49.8945 57.7434L47.9595 56.7454L46.9259 58.7493L48.9648 59.7121L49.8945 57.7434ZM43.0364 62.838L44.3456 61.0983L42.8086 59.9417L41.4714 61.3244L43.0364 62.838ZM32.6973 63.994L32.7069 61.8167H32.6973V63.994ZM32.6955 63.994L32.6858 66.1712H32.6955V63.994ZM28.281 63.994L28.281 66.1712L28.2906 66.1712L28.281 63.994ZM28.2792 63.994L28.2792 61.8167L28.2696 61.8168L28.2792 63.994ZM18.9857 60.1987L20.1404 62.0446L23.015 60.2463L20.1837 58.3807L18.9857 60.1987ZM15.569 57.2359L17.2016 55.7955L14.8919 53.1774L13.5571 56.4035L15.569 57.2359ZM13.52 59.2989L12.9276 57.2038L12.9276 57.2038L13.52 59.2989ZM7.45281 53.4711L5.35773 54.0636L5.35773 54.0636L7.45281 53.4711ZM9.56964 45.329L10.1621 47.4241L10.1621 47.4241L9.56964 45.329ZM11.5906 45.5394L10.6887 47.5211L13.5275 48.813L13.7616 45.7029L11.5906 45.5394ZM34.4774 31.2037L33.8049 33.2745L39.7551 35.2071L36.2903 29.9979L34.4774 31.2037ZM32.653 22.3137L34.7417 22.9281L35.1174 21.6508L34.1516 20.7343L32.653 22.3137ZM28.4143 14.2913L30.5066 13.6894L30.5066 13.6894L28.4143 14.2913ZM29.4363 2.93493L28.8344 0.842555L28.8344 0.842555L29.4363 2.93493ZM34.7172 7.78611L32.7662 8.75268L35.9563 15.1914L36.8765 8.06493L34.7172 7.78611ZM39.2234 0.0389033L38.6215 -2.05347L38.6215 -2.05347L39.2234 0.0389033ZM41.6446 5.98226L43.7984 5.66345L43.7984 5.66345L41.6446 5.98226ZM46.2362 16.3927C45.8687 14.391 45.2174 12.0454 44.5507 9.72793L40.366 10.9318C41.0387 13.2701 41.6302 15.4188 41.9533 17.179L46.2362 16.3927ZM51.4497 17.4787C49.2293 16.0309 46.8444 15.0848 44.4947 14.6457L43.6948 18.926C45.4634 19.2566 47.3144 19.9806 49.0713 21.1263L51.4497 17.4787ZM57.8886 36.1704C59.855 33.1547 59.8888 29.4938 58.6607 26.1763C57.4324 22.8585 54.9072 19.7332 51.4497 17.4787L49.0713 21.1263C51.8249 22.9218 53.7045 25.3312 54.577 27.688C55.4496 30.0451 55.2801 32.1985 54.241 33.7919L57.8886 36.1704ZM47.5068 40.9216C51.6056 41.0912 55.6349 39.6267 57.8886 36.1704L54.241 33.7919C53.057 35.6078 50.7267 36.6967 47.6868 36.5708L47.5068 40.9216ZM53.8607 49.7611C53.8607 44.5949 52.0808 39.7597 49.0253 37.1032L46.1683 40.3893C47.98 41.9645 49.5063 45.4077 49.5063 49.7611H53.8607ZM51.8295 58.7414C53.1238 56.2319 53.8607 53.1014 53.8607 49.7611H49.5063C49.5063 52.4889 48.8999 54.922 47.9595 56.7454L51.8295 58.7414ZM54.2554 60.5555C54.2554 58.2191 52.5512 56.5902 50.8242 55.7746L48.9648 59.7121C49.3848 59.9105 49.6421 60.1322 49.7762 60.3012C49.9011 60.4586 49.9009 60.5405 49.9009 60.5555H54.2554ZM46.9084 66.1773C48.7056 66.1773 50.4312 65.6958 51.7712 64.803C53.0958 63.9205 54.2554 62.4617 54.2554 60.5555H49.9009C49.9009 60.5732 49.8991 60.6265 49.8338 60.7294C49.7625 60.8416 49.6178 61.0053 49.3568 61.1792C48.8256 61.5331 47.9664 61.8228 46.9084 61.8228V66.1773ZM41.7273 64.5777C43.1108 65.6188 44.9745 66.1773 46.9084 66.1773V61.8228C45.76 61.8228 44.8564 61.4827 44.3456 61.0983L41.7273 64.5777ZM32.6876 66.1712C35.2073 66.1824 37.6063 66.1947 39.5188 66.0437C40.4774 65.968 41.4031 65.8456 42.2106 65.6306C42.9711 65.4283 43.9016 65.0752 44.6015 64.3516L41.4714 61.3244C41.5925 61.1991 41.5796 61.2925 41.0907 61.4226C40.649 61.5402 40.0195 61.6362 39.1762 61.7027C37.4849 61.8363 35.293 61.8282 32.7069 61.8168L32.6876 66.1712ZM32.6964 66.1712H32.6973V61.8167H32.6964V66.1712ZM32.6955 66.1712H32.6964V61.8167H32.6955V66.1712ZM30.4882 66.1648C31.2352 66.1648 31.9679 66.168 32.6858 66.1712L32.7051 61.8168C31.9887 61.8136 31.2464 61.8103 30.4882 61.8103V66.1648ZM28.2906 66.1712C29.0085 66.168 29.7413 66.1648 30.4882 66.1648V61.8103C29.7301 61.8103 28.9878 61.8136 28.2713 61.8168L28.2906 66.1712ZM28.2801 66.1712H28.281V61.8167H28.2801V66.1712ZM28.2792 66.1712H28.2801V61.8167H28.2792V66.1712ZM15.4321 62.0315C15.4321 63.5987 16.4275 64.5937 17.4016 65.1119C18.2866 65.5827 19.3729 65.8062 20.3971 65.9363C22.4825 66.2014 25.3202 66.1844 28.2889 66.1712L28.2696 61.8168C25.1779 61.8305 22.6806 61.8371 20.9461 61.6166C20.0604 61.504 19.6156 61.3574 19.4469 61.2676C19.3672 61.2253 19.7865 61.4691 19.7865 62.0315H15.4321ZM17.831 58.3529C16.7764 59.0127 15.4321 60.2037 15.4321 62.0315H19.7865C19.7865 62.1456 19.7641 62.2429 19.7376 62.3131C19.7125 62.3794 19.69 62.406 19.6986 62.3947C19.7078 62.3826 19.7418 62.3417 19.817 62.2771C19.8917 62.213 19.9971 62.1342 20.1404 62.0446L17.831 58.3529ZM13.9363 58.6763C15.0584 59.9483 16.3545 61.0724 17.7878 62.0168L20.1837 58.3807C19.0686 57.646 18.0657 56.7749 17.2016 55.7955L13.9363 58.6763ZM14.1125 61.394C15.8684 60.8974 16.9815 59.5167 17.5808 58.0683L13.5571 56.4035C13.2828 57.0664 12.9981 57.1839 12.9276 57.2038L14.1125 61.394ZM5.35773 54.0636C5.98964 56.2982 7.11688 58.2748 8.53977 59.6415C9.91933 60.9666 11.9325 62.0104 14.1125 61.394L12.9276 57.2038C12.8476 57.2264 12.3726 57.2852 11.5563 56.5011C10.7832 55.7586 10.0069 54.5017 9.54789 52.8787L5.35773 54.0636ZM8.97719 43.234C6.7972 43.8504 5.6288 45.7939 5.14748 47.6453C4.65104 49.5547 4.72583 51.8289 5.35773 54.0636L9.54789 52.8787C9.08893 51.2556 9.09215 49.7783 9.36185 48.7409C9.64667 47.6454 10.0821 47.4467 10.1621 47.4241L8.97719 43.234ZM12.4924 43.5577C11.4427 43.0801 10.2196 42.8826 8.97718 43.234L10.1621 47.4241C10.2243 47.4065 10.3818 47.3814 10.6887 47.5211L12.4924 43.5577ZM28.8598 28.1438C18.6706 28.1438 10.1522 35.6448 9.41946 45.3759L13.7616 45.7029C14.3099 38.4218 20.7654 32.4983 28.8598 32.4983V28.1438ZM35.15 29.133C33.1729 28.4908 31.0563 28.1438 28.8598 28.1438V32.4983C30.596 32.4983 32.2589 32.7723 33.8049 33.2745L35.15 29.133ZM30.5642 21.6993C29.5242 25.2349 30.4859 29.1341 32.6646 32.4095L36.2903 29.9979C34.6161 27.4809 34.1595 24.9075 34.7417 22.9281L30.5642 21.6993ZM26.3219 14.8933C27.4047 18.6571 29.1642 22.0046 31.1543 23.893L34.1516 20.7343C32.9417 19.5862 31.4765 17.0606 30.5066 13.6894L26.3219 14.8933ZM28.8344 0.842555C27.5017 1.22594 26.6647 2.22988 26.1763 3.21123C25.6888 4.19074 25.4344 5.35292 25.3277 6.538C25.1131 8.92313 25.4552 11.8806 26.3219 14.8933L30.5066 13.6894C29.7501 11.0595 29.5094 8.65339 29.6647 6.92832C29.743 6.0583 29.9117 5.4787 30.0746 5.15154C30.2365 4.82623 30.2771 4.9586 30.0383 5.02731L28.8344 0.842555ZM36.6681 6.81954C35.7828 5.03275 34.7197 3.46011 33.5468 2.36354C32.4614 1.34877 30.7639 0.287488 28.8344 0.842555L30.0383 5.02731C29.6959 5.12581 29.8227 4.84298 30.5729 5.54437C31.2357 6.16396 32.0194 7.24519 32.7662 8.75268L36.6681 6.81954ZM38.6215 -2.05347C37.7437 -1.80096 36.9921 -1.24513 36.4081 -0.686146C35.795 -0.0993869 35.2196 0.632453 34.7118 1.44752C33.6984 3.07437 32.857 5.19046 32.5579 7.50728L36.8765 8.06493C37.0894 6.41613 37.6978 4.88972 38.4078 3.74991C38.7618 3.18166 39.1165 2.74914 39.419 2.45959C39.7505 2.14228 39.8998 2.10986 39.8254 2.13128L38.6215 -2.05347ZM43.7984 5.66345C43.5689 4.113 43.3097 2.31817 42.8837 0.978011C42.6778 0.330147 42.3516 -0.49149 41.7683 -1.13241C41.4533 -1.47857 41.0096 -1.83144 40.4156 -2.02778C39.8016 -2.23075 39.182 -2.21472 38.6215 -2.05347L39.8254 2.13128C39.6344 2.1862 39.3527 2.20708 39.0489 2.10666C38.7652 2.01287 38.6041 1.86023 38.5479 1.79851C38.4823 1.72645 38.5792 1.81047 38.7339 2.2971C39.0291 3.22592 39.2413 4.61542 39.4908 6.30108L43.7984 5.66345ZM44.5507 9.72793C44.2489 8.67873 44.0352 7.26348 43.7984 5.66345L39.4908 6.30108C39.7136 7.80606 39.9666 9.54349 40.366 10.9318L44.5507 9.72793ZM47.3789 25.3965C47.3789 25.3394 47.3982 25.232 47.501 25.1121C47.6077 24.9876 47.8422 24.8209 48.1834 24.8209V29.1753C50.4468 29.1753 51.7334 27.1565 51.7334 25.3965H47.3789ZM48.1834 25.9722C47.8422 25.9722 47.6077 25.8055 47.501 25.6809C47.3982 25.561 47.3789 25.4536 47.3789 25.3965H51.7334C51.7334 23.6365 50.4468 21.6177 48.1834 21.6177V25.9722ZM48.9878 25.3965C48.9878 25.4537 48.9685 25.561 48.8657 25.6809C48.759 25.8055 48.5245 25.9722 48.1834 25.9722V21.6177C45.92 21.6177 44.6333 23.6365 44.6333 25.3965H48.9878ZM48.1834 24.8209C48.5245 24.8209 48.759 24.9876 48.8657 25.1121C48.9685 25.232 48.9878 25.3394 48.9878 25.3965H44.6333C44.6333 27.1565 45.92 29.1753 48.1834 29.1753V24.8209Z" fill="#11644D" mask="url(#path-1-inside-1_1518_44)"/>
</svg>
