<?xml version="1.0" standalone="no"?>
<!DOCTYPE svg PUBLIC "-//W3C//DTD SVG 20010904//EN"
 "http://www.w3.org/TR/2001/REC-SVG-20010904/DTD/svg10.dtd">
<svg version="1.0" xmlns="http://www.w3.org/2000/svg"
 width="700.000000pt" height="700.000000pt" viewBox="0 0 700.000000 700.000000"
 preserveAspectRatio="xMidYMid meet">
<metadata>
Created by potrace 1.14, written by Peter Selinger 2001-2017
</metadata>
<g transform="translate(0.000000,700.000000) scale(0.100000,-0.100000)"
fill="#000000" stroke="none">
<path d="M4235 6971 c-67 -39 -161 -139 -227 -242 -94 -147 -150 -284 -192
-470 l-23 -102 -33 64 c-98 190 -263 381 -375 435 -175 84 -305 -12 -361 -270
-22 -97 -26 -360 -8 -506 58 -478 256 -980 496 -1260 l56 -65 -15 -65 c-26
-114 -22 -301 11 -443 29 -123 112 -320 175 -412 27 -39 26 -47 -5 -35 -27 11
-217 55 -274 64 -384 60 -813 -6 -1165 -178 -385 -189 -672 -470 -855 -836
-63 -126 -129 -320 -146 -428 -3 -20 -10 -55 -15 -77 -4 -22 -9 -59 -9 -82 l0
-42 -42 15 c-24 8 -71 15 -106 15 -358 1 -476 -621 -215 -1136 88 -172 211
-308 337 -370 70 -35 86 -39 154 -39 63 0 86 5 127 26 58 30 124 97 154 157
12 23 23 41 25 41 2 0 34 -31 71 -70 37 -38 116 -106 174 -152 58 -45 109 -84
113 -88 4 -3 -14 -23 -41 -44 -62 -49 -94 -105 -93 -162 1 -106 104 -160 367
-196 77 -10 305 -13 1000 -13 495 0 945 3 1000 7 175 13 308 43 380 88 l32 20
79 -40 c118 -60 186 -74 344 -75 154 0 222 14 336 70 149 73 229 180 228 305
-1 107 -56 192 -176 270 l-56 37 20 44 c112 246 170 522 170 813 0 172 -5 236
-32 391 -55 312 -182 590 -350 767 l-56 58 76 1 c477 4 843 258 952 660 30
111 32 332 5 454 -101 443 -431 849 -897 1102 -138 76 -352 155 -483 178 -43
8 -44 10 -52 56 -12 69 -85 361 -134 535 -55 195 -78 304 -111 519 -21 134
-54 337 -66 400 -25 139 -75 265 -120 305 -44 38 -83 39 -149 1z m1107 -2596
c9 -3 29 -25 44 -48 73 -108 4 -277 -113 -277 -138 0 -203 199 -98 302 47 45
97 52 167 23z"/>
</g>
</svg>
